<svg data-v-423bf9ae="" xmlns="http://www.w3.org/2000/svg" viewBox="0 0 688 90" class="iconLeft"><!----><!----><!----><g data-v-423bf9ae="" id="214f7ed2-4f36-4179-9234-fef2e3ff2e2e" fill="#0C203C" transform="matrix(5.410279921920812,0,0,5.410279921920812,138.31947375853116,0.7168587696380513)"><path d="M6.28 10.36L9.86 4.36L6.88 4.36L5.00 7.75L3.12 4.36L0.14 4.36L3.72 10.36L3.72 13.52L6.28 13.52ZM13.62 6.34C11.92 6.34 10.47 7.67 10.47 10.02C10.47 12.55 11.92 13.73 13.48 13.73C14.48 13.73 15.22 13.13 15.56 12.36L15.56 13.52L17.91 13.52L17.91 6.55L15.56 6.55L15.56 7.19C15.11 6.70 14.34 6.34 13.62 6.34ZM14.11 8.64C14.63 8.64 15.15 8.89 15.56 9.21L15.56 9.88C15.56 10.90 14.77 11.35 14.18 11.35C13.43 11.35 12.93 10.77 12.93 10.02C12.93 9.28 13.43 8.64 14.11 8.64ZM22.26 6.34C20.60 6.34 19.35 7.25 19.35 8.68C19.35 9.65 19.80 10.32 20.82 10.64L21.52 10.86C22.07 11.03 22.37 11.13 22.37 11.39C22.37 11.72 22.12 11.83 21.60 11.83C20.95 11.83 20.03 11.53 19.37 11.12L19.37 12.95C20.00 13.38 20.93 13.73 21.97 13.73C23.46 13.73 24.83 12.77 24.83 11.40C24.83 10.40 24.24 9.76 23.01 9.45L22.59 9.34C22.00 9.19 21.85 9.11 21.85 8.85C21.85 8.48 22.24 8.31 22.68 8.31C23.37 8.31 23.98 8.64 24.46 8.93L24.46 7.08C23.98 6.63 23.16 6.34 22.26 6.34ZM34.36 6.34C33.46 6.34 32.72 6.89 32.28 7.62C31.87 6.78 31.12 6.34 30.17 6.34C29.24 6.34 28.85 6.85 28.41 7.45L28.41 6.55L26.06 6.55L26.06 13.52L28.41 13.52L28.41 9.31C28.66 8.94 28.92 8.64 29.34 8.64C29.82 8.64 30.23 8.89 30.23 9.58L30.24 13.52L32.59 13.52L32.59 9.27C32.84 8.91 33.11 8.64 33.52 8.64C34.00 8.64 34.41 8.89 34.41 9.58L34.43 13.52L36.78 13.52L36.78 9.21C36.78 7.33 35.78 6.34 34.36 6.34ZM40.44 5.48C41.22 5.48 41.92 4.84 41.92 4.06C41.92 3.27 41.22 2.64 40.44 2.64C39.65 2.64 38.98 3.27 38.98 4.06C38.98 4.84 39.65 5.48 40.44 5.48ZM41.69 6.55L38.20 6.55L38.20 8.46L39.33 8.46L39.33 13.52L41.69 13.52ZM47.78 6.34C46.85 6.34 46.25 6.85 45.81 7.45L45.81 6.55L43.46 6.55L43.46 13.52L45.81 13.52L45.81 9.31C46.06 8.94 46.40 8.64 46.91 8.64C47.39 8.64 47.84 8.89 47.84 9.58L47.85 13.52L50.20 13.52L50.20 9.21C50.20 7.33 49.21 6.34 47.78 6.34ZM66.05 13.52L66.05 4.22L64.87 4.22L61.24 8.05L57.60 4.22L56.42 4.22L56.42 13.52L58.98 13.52L58.98 8.74L60.85 10.79L61.62 10.79L63.49 8.74L63.49 13.52ZM70.90 6.34C69.21 6.34 67.76 7.67 67.76 10.02C67.76 12.55 69.21 13.73 70.77 13.73C71.76 13.73 72.50 13.13 72.84 12.36L72.84 13.52L75.20 13.52L75.20 6.55L72.84 6.55L72.84 7.19C72.39 6.70 71.63 6.34 70.90 6.34ZM71.39 8.64C71.91 8.64 72.43 8.89 72.84 9.21L72.84 9.88C72.84 10.90 72.05 11.35 71.46 11.35C70.71 11.35 70.22 10.77 70.22 10.02C70.22 9.28 70.71 8.64 71.39 8.64ZM81.43 6.34C80.50 6.34 79.90 6.85 79.46 7.45L79.46 3.68L77.11 3.68L77.11 13.52L79.46 13.52L79.46 9.31C79.71 8.94 80.05 8.64 80.55 8.64C81.03 8.64 81.48 8.89 81.48 9.58L81.50 13.52L83.85 13.52L83.85 9.21C83.85 7.33 82.85 6.34 81.43 6.34ZM88.36 6.34C86.67 6.34 85.22 7.67 85.22 10.02C85.22 12.55 86.67 13.73 88.22 13.73C89.22 13.73 89.96 13.13 90.30 12.36L90.30 13.52L92.65 13.52L92.65 6.55L90.30 6.55L90.30 7.19C89.85 6.70 89.09 6.34 88.36 6.34ZM88.85 8.64C89.37 8.64 89.89 8.89 90.30 9.21L90.30 9.88C90.30 10.90 89.51 11.35 88.92 11.35C88.17 11.35 87.68 10.77 87.68 10.02C87.68 9.28 88.17 8.64 88.85 8.64ZM101.53 13.52L101.53 3.68L99.18 3.68L99.18 7.19C98.72 6.70 97.96 6.34 97.23 6.34C95.54 6.34 94.09 7.67 94.09 10.02C94.09 12.55 95.54 13.73 97.10 13.73C98.10 13.73 98.83 13.13 99.18 12.36L99.18 13.52ZM97.73 8.64C98.25 8.64 98.77 8.89 99.18 9.21L99.18 9.88C99.18 10.90 98.38 11.35 97.79 11.35C97.04 11.35 96.55 10.77 96.55 10.02C96.55 9.28 97.04 8.64 97.73 8.64Z"></path></g><defs data-v-423bf9ae=""><linearGradient data-v-423bf9ae="" gradientTransform="rotate(25)" id="310c1044-6b0e-43ff-b40e-6db4f26d66c4" x1="0%" y1="0%" x2="100%" y2="0%"><stop data-v-423bf9ae="" offset="0%" style="stop-color: rgb(40, 139, 88); stop-opacity: 1;"></stop><stop data-v-423bf9ae="" offset="100%" style="stop-color: rgb(21, 34, 241); stop-opacity: 1;"></stop></linearGradient></defs><g data-v-423bf9ae="" id="f04b6015-202e-4d1d-a3f6-14a8ea4c63a4" transform="matrix(1.3846153846153846,0,0,1.3846153846153846,-8.038461538461533,-24.92307692307692)" stroke="none" fill="url(#310c1044-6b0e-43ff-b40e-6db4f26d66c4)"><path d="M35.845 61.275l-10.72-5.09c-1.209-.572-1.94-1.463-1.94-2.703v-.318c0-1.24.731-2.131 1.94-2.704l10.72-5.089c.381-.191.731-.318 1.177-.318 1.018-.031 1.94.859 1.94 2.004 0 .922-.509 1.559-1.336 1.94l-9.606 4.294 9.606 4.295c.827.381 1.336 1.113 1.336 2.004 0 1.177-.922 2.004-2.1 1.972-.349 0-.699-.127-1.017-.287zM41.889 66.047l12.438-25.988c.35-.731.922-1.113 1.686-1.113 1.018 0 1.876.859 1.876 1.813 0 .35-.127.7-.222.923L45.229 67.669c-.35.731-.922 1.113-1.686 1.113-1.018 0-1.876-.858-1.876-1.813 0-.35.126-.699.222-.922zM64.155 45.371l10.72 5.089c1.208.573 1.94 1.464 1.94 2.704v.318c0 1.24-.731 2.131-1.94 2.703l-10.72 5.09c-.381.191-.731.318-1.177.318-1.018.031-1.94-.859-1.94-2.004 0-.923.509-1.559 1.336-1.94l9.606-4.295-9.606-4.294c-.827-.381-1.336-1.113-1.336-2.004 0-1.177.923-2.004 2.1-1.973.349.001.699.129 1.017.288z"></path><path d="M92.5 21a3 3 0 0 0-3-3h-80a3 3 0 0 0-3 3v59a3 3 0 0 0 3 3h80a3 3 0 0 0 3-3V21zM26 20.833a2.167 2.167 0 1 1 0 4.335 2.167 2.167 0 0 1 0-4.335zm-6 0a2.167 2.167 0 1 1 0 4.335 2.167 2.167 0 0 1 0-4.335zm-6 0a2.167 2.167 0 1 1 0 4.335 2.167 2.167 0 0 1 0-4.335zM88.5 79h-78V29h78v50z"></path></g><!----></svg>